<?xml version="1.0" encoding="UTF-8"?>
<svg xmlns="http://www.w3.org/2000/svg" xmlns:xlink="http://www.w3.org/1999/xlink" width="32px" height="32px" viewBox="0 0 32 32" version="1.1">
<g id="surface1">
<path style=" stroke:none;fill-rule:nonzero;fill:rgb(0%,0%,0%);fill-opacity:1;" d="M 10.894531 16 L 2.878906 21.21875 L 2.878906 10.78125 Z M 21.105469 16 L 29.121094 21.21875 L 29.121094 10.78125 Z M 19.933594 16.765625 L 16.347656 19.097656 C 16.242188 19.164062 16.121094 19.199219 16 19.199219 C 15.878906 19.199219 15.757812 19.164062 15.652344 19.097656 L 12.066406 16.765625 L 3.410156 22.398438 L 2.910156 22.726562 C 3.066406 23.628906 3.851562 24.320312 4.800781 24.320312 L 27.199219 24.320312 C 28.148438 24.320312 28.933594 23.632812 29.089844 22.726562 L 28.585938 22.398438 Z M 16 17.796875 L 28.585938 9.601562 L 29.089844 9.273438 C 28.933594 8.367188 28.148438 7.679688 27.199219 7.679688 L 4.800781 7.679688 C 3.851562 7.679688 3.066406 8.371094 2.910156 9.273438 L 3.410156 9.601562 Z M 16 17.796875 "/>
</g>
</svg>
